<svg xmlns="http://www.w3.org/2000/svg" xmlns:xlink="http://www.w3.org/1999/xlink" x="0" y="0" enable-background="new 0 0 32 32" version="1.1" viewBox="0 0 32 32" xml:space="preserve"><g id="Dark_Theme_1_" display="none"><rect width="544" height="736" x="-96" y="-128" fill="#333" display="inline"/><rect width="612" height="792" x="-128" y="-160" fill="none" stroke="gray" stroke-miterlimit="10" stroke-width=".25" display="inline"/></g><g id="Hover" display="none"><rect width="544" height="736" x="-96" y="-128" fill="#C5E5F9" display="inline"/></g><g id="Selected" display="none"><rect width="544" height="736" x="-96" y="-128" fill="#AADBFA" display="inline"/></g><g id="Icon_Name"><polygon fill="#6DB5E3" points="22 10 25 11 25 4 22 4"/><rect width="25" height="15" x="4" y="16" fill="#57A6D9"/><rect width="23" height="15" x="5" y="16" fill="#FFF"/><rect width="21" height="14" x="6" y="17" fill="#D3EAF9"/><rect width="7" height="8" x="8" y="19" fill="#6DB5E3"/><rect width="7" height="12" x="18" y="19" fill="#6DB5E3"/><rect width="5" height="6" x="9" y="20" fill="#FFF"/><rect width="5" height="11" x="19" y="20" fill="#FFF"/><rect width="29" height="1" x="2" y="31" fill="#57A6D9"/><path fill="#57A6D9" d="M16.5,1.5L2,16h29L16.5,1.5z M16.5,5l10.4545288,10H6.0454712L16.5,5z"/><rect width="1" height="1" x="22" y="25" fill="#6DB5E3"/><rect width="32" height="32" fill="none"/></g></svg>