<svg xmlns="http://www.w3.org/2000/svg" xmlns:xlink="http://www.w3.org/1999/xlink" x="0" y="0" enable-background="new 0 0 32 32" version="1.1" viewBox="0 0 32 32" xml:space="preserve"><g id="Dark_Theme_1_" display="none"><rect width="544" height="736" x="-224" y="-64" fill="#333" display="inline"/><rect width="612" height="792" x="-256" y="-96" fill="none" stroke="gray" stroke-miterlimit="10" stroke-width=".25" display="inline"/></g><g id="Hover" display="none"><rect width="544" height="736" x="-224" y="-64" fill="#C5E5F9" display="inline"/></g><g id="Selected" display="none"><rect width="544" height="736" x="-224" y="-64" fill="#AADBFA" display="inline"/></g><g id="Icon_Name"><polygon fill="#57A6D9" points="27 15 27 12 26 12 26 10 23 10 23 6 22 6 22 10 19 10 19 12 18 12 18 15 17.002 15 17.002 32 28 32 28 15"/><polygon fill="#57A6D9" points="14 6 14 4 5 4 5 6 4 6 4 32 15 32 15 6"/><rect width="9" height="24" x="5" y="7" fill="#D3EAF9"/><rect width="9" height="15" x="18" y="16" fill="#D3EAF9"/><g><rect width="1" height="1" x="19" y="18" fill="#57A6D9"/><rect width="1" height="1" x="23" y="18" fill="#57A6D9"/><rect width="1" height="1" x="25" y="18" fill="#57A6D9"/><rect width="1" height="1" x="19" y="20" fill="#57A6D9"/><rect width="1" height="1" x="23" y="20" fill="#57A6D9"/><rect width="1" height="1" x="25" y="20" fill="#57A6D9"/><rect width="1" height="1" x="19" y="22" fill="#57A6D9"/><rect width="1" height="1" x="23" y="22" fill="#57A6D9"/><rect width="1" height="1" x="25" y="22" fill="#57A6D9"/><rect width="1" height="1" x="19" y="24" fill="#57A6D9"/><rect width="1" height="1" x="23" y="24" fill="#57A6D9"/><rect width="1" height="1" x="25" y="24" fill="#57A6D9"/><rect width="1" height="1" x="19" y="26" fill="#57A6D9"/><rect width="1" height="1" x="23" y="26" fill="#57A6D9"/><rect width="1" height="1" x="25" y="26" fill="#57A6D9"/><rect width="1" height="1" x="19" y="28" fill="#57A6D9"/><rect width="1" height="1" x="23" y="28" fill="#57A6D9"/><rect width="1" height="1" x="25" y="28" fill="#57A6D9"/><rect width="1" height="1" x="21" y="18" fill="#57A6D9"/><rect width="1" height="1" x="21" y="20" fill="#57A6D9"/><rect width="1" height="1" x="21" y="22" fill="#57A6D9"/><rect width="1" height="1" x="21" y="24" fill="#57A6D9"/><rect width="1" height="1" x="21" y="26" fill="#57A6D9"/><rect width="1" height="1" x="21" y="28" fill="#57A6D9"/></g><rect width="1" height="24" x="5" y="7" fill="#FFF"/><rect width="1" height="15" x="18" y="16" fill="#FFF"/><rect width="7" height="2" x="19" y="13" fill="#D3EAF9"/><rect width="5" height="1" x="20" y="11" fill="#D3EAF9"/><rect width="1" height="2" x="19" y="13" fill="#FFF"/><rect width="3" height="1" x="20" y="11" fill="#FFF"/><g><rect width="3" height="1" x="10" y="8" fill="#6DB5E3"/><rect width="3" height="1" x="6" y="8" fill="#6DB5E3"/><rect width="3" height="1" x="10" y="10" fill="#6DB5E3"/><rect width="3" height="1" x="6" y="10" fill="#6DB5E3"/><rect width="3" height="1" x="10" y="12" fill="#6DB5E3"/><rect width="3" height="1" x="6" y="12" fill="#6DB5E3"/><rect width="3" height="1" x="10" y="14" fill="#6DB5E3"/><rect width="3" height="1" x="6" y="14" fill="#6DB5E3"/><rect width="3" height="1" x="10" y="16" fill="#6DB5E3"/><rect width="3" height="1" x="6" y="16" fill="#6DB5E3"/><rect width="3" height="1" x="10" y="18" fill="#6DB5E3"/><rect width="3" height="1" x="6" y="18" fill="#6DB5E3"/><rect width="3" height="1" x="10" y="20" fill="#6DB5E3"/><rect width="3" height="1" x="6" y="20" fill="#6DB5E3"/><rect width="3" height="1" x="10" y="22" fill="#6DB5E3"/><rect width="3" height="1" x="6" y="22" fill="#6DB5E3"/><rect width="3" height="1" x="10" y="24" fill="#6DB5E3"/><polygon fill="#6DB5E3" points="6 24 6 24 6 25 6 25 7 25 9 25 9 24 7 24"/><rect width="3" height="1" x="10" y="26" fill="#6DB5E3"/><rect width="3" height="1" x="6" y="26" fill="#6DB5E3"/><rect width="3" height="1" x="10" y="28" fill="#6DB5E3"/><rect width="3" height="1" x="6" y="28" fill="#6DB5E3"/></g><rect width="7" height="1" x="6" y="5" fill="#FFF"/><rect width="6" height="1" x="7" y="5" fill="#D3EAF9"/><polygon fill="#57A6D9" points="2 31.125 2 32 11.099 32 30 32 30 31.125"/><rect width="32" height="32" fill="none"/></g></svg>